<?xml version="1.0" encoding="UTF-8"?>
<svg width="203px" height="94px" viewBox="0 0 203 94" version="1.1" xmlns="http://www.w3.org/2000/svg" xmlns:xlink="http://www.w3.org/1999/xlink">
    <!-- Generator: Sketch 62 (91390) - https://sketch.com -->
    <title>LBM Copy</title>
    <desc>Created with Sketch.</desc>
    <defs>
        <linearGradient x1="6.94705743%" y1="100%" x2="100%" y2="100%" id="linearGradient-1">
            <stop stop-color="#757467" offset="0.0633445946%"></stop>
            <stop stop-color="#DDDCD3" offset="42.4932963%"></stop>
            <stop stop-color="#7E7D75" offset="100%"></stop>
        </linearGradient>
        <path d="M5.25436257e-14,0 L41.8569986,0 L41.8569986,45.2719912 L70.068776,45.2719912 L70.068776,59.895288 L12.4879451,60 C20.1233043,59.8266871 23.9409839,58.2239666 23.9409839,55.1918386 C23.9409839,51.7381162 25.065619,14.0516485 23.9409839,8.83950109 C22.8163488,3.62735371 18.3442554,3.51791613 12.4879451,2.11246714 C12.1887105,2.04065417 10.8991677,3.51319255 8.61931681,6.53008228 C9.54046081,3.16897785 9.8909226,1.45805584 9.67070216,1.39731625 C9.0042346,1.21349605 5.78066722,0.747723965 5.25436257e-14,0 Z" id="path-2"></path>
        <linearGradient x1="50%" y1="0%" x2="50%" y2="100%" id="linearGradient-4">
            <stop stop-color="#C3CBB8" offset="0%"></stop>
            <stop stop-color="#818976" offset="100%"></stop>
        </linearGradient>
        <linearGradient x1="69.7199597%" y1="75.4748317%" x2="-5.42277735%" y2="2.60008526%" id="linearGradient-5">
            <stop stop-color="#EACD89" offset="0%"></stop>
            <stop stop-color="#6C665D" offset="100%"></stop>
        </linearGradient>
        <linearGradient x1="92.4987349%" y1="98.8716165%" x2="-18.7941521%" y2="-20.2654868%" id="linearGradient-6">
            <stop stop-color="#F3D8AD" offset="0%"></stop>
            <stop stop-color="#7C776E" offset="100%"></stop>
        </linearGradient>
        <linearGradient x1="0%" y1="70.2440595%" x2="100%" y2="70.2440595%" id="linearGradient-7">
            <stop stop-color="#AAA693" offset="1.75253378%"></stop>
            <stop stop-color="#D0CDC0" offset="25.9184966%"></stop>
            <stop stop-color="#C8C5B5" offset="68.823902%"></stop>
            <stop stop-color="#AAA68E" offset="100%"></stop>
        </linearGradient>
        <linearGradient x1="50%" y1="0%" x2="50%" y2="64.1047297%" id="linearGradient-8">
            <stop stop-color="#A7A7A7" offset="0%"></stop>
            <stop stop-color="#D0D0D0" offset="100%"></stop>
        </linearGradient>
        <path d="M2.76423982,2.48779946 C5.80819489,0.148899845 11.3683475,-0.540815975 19.4446977,0.418652004 L19.4446977,11.8580819 C16.5496898,12.0754431 14.0000097,12.1841237 11.7956575,12.1841237 C9.59130537,12.1841237 8.28907711,12.0754431 7.88897278,11.8580819 C7.68896792,12.5869577 7.4811506,13.0475673 7.26552083,13.2399107 C6.49352434,13.9285372 5.48855492,13.8912443 5.19780871,13.6941877 C4.78524807,13.4145701 4.36673488,12.8025349 3.94226914,11.8580819 C3.48759799,12.7716372 3.09492154,13.3836725 2.76423982,13.6941877 C2.43355809,14.004703 1.90358419,14.2590506 1.17431812,14.4572307 C-0.809689152,8.81650949 -0.279715252,4.82669908 2.76423982,2.48779946 Z" id="path-9"></path>
        <filter x="-179.7%" y="-263.0%" width="459.5%" height="626.1%" filterUnits="objectBoundingBox" id="filter-11">
            <feGaussianBlur stdDeviation="18" in="SourceGraphic"></feGaussianBlur>
        </filter>
        <path d="M15.0229008,20.5296912 C23.3198198,20.5296912 30.0458015,15.9339633 30.0458015,10.2648456 C30.0458015,4.59572792 23.3198198,0 15.0229008,0 C12.2900525,0 9.7276383,0.498599264 7.51987446,1.3699264 C7.31873385,1.44930956 6.93452938,1.40402445 6.36726105,1.23407108 C6.16252537,1.75981996 5.96812193,2.0718057 5.78405072,2.1700283 C5.61996469,2.25758657 5.26803611,2.25758657 4.72826498,2.1700283 C4.64235051,2.63648544 4.52531286,2.92054976 4.37715202,3.02222125 C4.2566884,3.10488625 3.91696172,3.10488625 3.35797197,3.02222125 C3.41297892,3.48991247 3.37602887,3.77927171 3.24712182,3.89029898 C3.15808674,3.96698462 2.87669524,3.9989542 2.40294733,3.98620769 C2.41427666,4.44191867 2.35302359,4.74407599 2.21918811,4.89267968 C0.811779499,6.45539012 0,8.2953425 0,10.2648456 C0,15.9339633 6.72598177,20.5296912 15.0229008,20.5296912 Z" id="path-12"></path>
        <filter x="-285.8%" y="-194.6%" width="671.5%" height="489.3%" filterUnits="objectBoundingBox" id="filter-14">
            <feGaussianBlur stdDeviation="12" in="SourceGraphic"></feGaussianBlur>
        </filter>
        <linearGradient x1="50%" y1="0%" x2="50%" y2="100%" id="linearGradient-15">
            <stop stop-color="#A7A7A7" offset="0%"></stop>
            <stop stop-color="#D0D0D0" offset="64.1047297%"></stop>
        </linearGradient>
        <linearGradient x1="50%" y1="9.45897117%" x2="50%" y2="64.4610431%" id="linearGradient-16">
            <stop stop-color="#717171" offset="0%"></stop>
            <stop stop-color="#D8D8D8" offset="100%"></stop>
        </linearGradient>
        <linearGradient x1="102.995476%" y1="73.6234149%" x2="40.7330658%" y2="73.6234149%" id="linearGradient-17">
            <stop stop-color="#2B2210" offset="0%"></stop>
            <stop stop-color="#AF996A" offset="100%"></stop>
        </linearGradient>
        <polygon id="path-18" points="0 3.16001565e-14 22.9460024 3.16001565e-14 32.7169121 36.7037587 42.2440537 3.16001565e-14 65.9299291 0 65.9299291 59 50.6151667 58.9616758 50.6151667 13.807841 39.0765651 58.9616758 26.0439498 58.9616758 14.0841121 13.807841 14.0841121 59 0 59"></polygon>
        <filter x="-384.0%" y="-243.6%" width="867.9%" height="587.1%" filterUnits="objectBoundingBox" id="filter-20">
            <feGaussianBlur stdDeviation="10" in="SourceGraphic"></feGaussianBlur>
        </filter>
        <filter x="-384.0%" y="-243.6%" width="867.9%" height="587.1%" filterUnits="objectBoundingBox" id="filter-21">
            <feGaussianBlur stdDeviation="10" in="SourceGraphic"></feGaussianBlur>
        </filter>
        <filter x="-128.0%" y="-243.6%" width="356.0%" height="587.1%" filterUnits="objectBoundingBox" id="filter-22">
            <feGaussianBlur stdDeviation="10" in="SourceGraphic"></feGaussianBlur>
        </filter>
        <filter x="-230.4%" y="-146.1%" width="560.8%" height="392.3%" filterUnits="objectBoundingBox" id="filter-23">
            <feGaussianBlur stdDeviation="6" in="SourceGraphic"></feGaussianBlur>
        </filter>
        <filter x="-230.4%" y="-146.1%" width="560.8%" height="392.3%" filterUnits="objectBoundingBox" id="filter-24">
            <feGaussianBlur stdDeviation="6" in="SourceGraphic"></feGaussianBlur>
        </filter>
        <filter x="-230.4%" y="-146.1%" width="560.8%" height="392.3%" filterUnits="objectBoundingBox" id="filter-25">
            <feGaussianBlur stdDeviation="6" in="SourceGraphic"></feGaussianBlur>
        </filter>
        <filter x="-230.4%" y="-146.1%" width="560.8%" height="392.3%" filterUnits="objectBoundingBox" id="filter-26">
            <feGaussianBlur stdDeviation="6" in="SourceGraphic"></feGaussianBlur>
        </filter>
        <filter x="-230.4%" y="-146.1%" width="560.8%" height="392.3%" filterUnits="objectBoundingBox" id="filter-27">
            <feGaussianBlur stdDeviation="6" in="SourceGraphic"></feGaussianBlur>
        </filter>
        <filter x="-230.4%" y="-146.1%" width="560.8%" height="392.3%" filterUnits="objectBoundingBox" id="filter-28">
            <feGaussianBlur stdDeviation="6" in="SourceGraphic"></feGaussianBlur>
        </filter>
        <filter x="-230.4%" y="-146.1%" width="560.8%" height="392.3%" filterUnits="objectBoundingBox" id="filter-29">
            <feGaussianBlur stdDeviation="6" in="SourceGraphic"></feGaussianBlur>
        </filter>
        <filter x="-230.4%" y="-146.1%" width="560.8%" height="392.3%" filterUnits="objectBoundingBox" id="filter-30">
            <feGaussianBlur stdDeviation="6" in="SourceGraphic"></feGaussianBlur>
        </filter>
        <filter x="-230.4%" y="-146.1%" width="560.8%" height="392.3%" filterUnits="objectBoundingBox" id="filter-31">
            <feGaussianBlur stdDeviation="6" in="SourceGraphic"></feGaussianBlur>
        </filter>
        <filter x="-230.4%" y="-206.7%" width="560.8%" height="513.3%" filterUnits="objectBoundingBox" id="filter-32">
            <feGaussianBlur stdDeviation="6" in="SourceGraphic"></feGaussianBlur>
        </filter>
        <filter x="-230.4%" y="-146.1%" width="560.8%" height="392.3%" filterUnits="objectBoundingBox" id="filter-33">
            <feGaussianBlur stdDeviation="6" in="SourceGraphic"></feGaussianBlur>
        </filter>
        <filter x="-230.4%" y="-146.1%" width="560.8%" height="392.3%" filterUnits="objectBoundingBox" id="filter-34">
            <feGaussianBlur stdDeviation="6" in="SourceGraphic"></feGaussianBlur>
        </filter>
        <filter x="-230.4%" y="-146.1%" width="560.8%" height="392.3%" filterUnits="objectBoundingBox" id="filter-35">
            <feGaussianBlur stdDeviation="6" in="SourceGraphic"></feGaussianBlur>
        </filter>
        <filter x="-230.4%" y="-146.1%" width="560.8%" height="392.3%" filterUnits="objectBoundingBox" id="filter-36">
            <feGaussianBlur stdDeviation="6" in="SourceGraphic"></feGaussianBlur>
        </filter>
        <filter x="-230.4%" y="-146.1%" width="560.8%" height="392.3%" filterUnits="objectBoundingBox" id="filter-37">
            <feGaussianBlur stdDeviation="6" in="SourceGraphic"></feGaussianBlur>
        </filter>
        <filter x="-230.4%" y="-146.1%" width="560.8%" height="392.3%" filterUnits="objectBoundingBox" id="filter-38">
            <feGaussianBlur stdDeviation="6" in="SourceGraphic"></feGaussianBlur>
        </filter>
        <filter x="-230.4%" y="-146.1%" width="560.8%" height="392.3%" filterUnits="objectBoundingBox" id="filter-39">
            <feGaussianBlur stdDeviation="6" in="SourceGraphic"></feGaussianBlur>
        </filter>
        <filter x="-230.4%" y="-146.1%" width="560.8%" height="392.3%" filterUnits="objectBoundingBox" id="filter-40">
            <feGaussianBlur stdDeviation="6" in="SourceGraphic"></feGaussianBlur>
        </filter>
        <filter x="-230.4%" y="-146.1%" width="560.8%" height="392.3%" filterUnits="objectBoundingBox" id="filter-41">
            <feGaussianBlur stdDeviation="6" in="SourceGraphic"></feGaussianBlur>
        </filter>
        <filter x="-230.4%" y="-146.1%" width="560.8%" height="392.3%" filterUnits="objectBoundingBox" id="filter-42">
            <feGaussianBlur stdDeviation="6" in="SourceGraphic"></feGaussianBlur>
        </filter>
        <linearGradient x1="52.1194504%" y1="70.1480005%" x2="50.2860303%" y2="71.2695803%" id="linearGradient-43">
            <stop stop-color="#9C9C9C" offset="0%"></stop>
            <stop stop-color="#D8D8D8" offset="100%"></stop>
        </linearGradient>
        <linearGradient x1="52.5834537%" y1="70.1729458%" x2="50.3662987%" y2="71.2749115%" id="linearGradient-44">
            <stop stop-color="#9C9C9C" offset="0%"></stop>
            <stop stop-color="#D8D8D8" offset="100%"></stop>
        </linearGradient>
        <linearGradient x1="52.5743885%" y1="70.1604731%" x2="50.3566186%" y2="71.2722459%" id="linearGradient-45">
            <stop stop-color="#9C9C9C" offset="0%"></stop>
            <stop stop-color="#D8D8D8" offset="100%"></stop>
        </linearGradient>
    </defs>
    <g id="LBM-Copy" stroke="none" stroke-width="1" fill="none" fill-rule="evenodd">
        <path d="M157.718181,85 L131.263855,85 L104.177549,85 L104.177549,69.7583041 C103.687485,69.9953389 103.244322,70.1522348 102.780138,70.2595605 L102.780138,85 L9.00179954,85 L9.00179954,68.2893732 L17.655645,68.2893732 C15.0597321,65.9627508 13.5175325,64.0487196 12.9606781,62.5926369 L12.9606781,36.1495848 C10.0810641,29.9590716 8.95368314,26.6254012 9.01579984,26.1031852 C9.16445557,24.8534343 10.096465,23.1343196 11.9981286,21.0026655 L9.00179954,21.0026655 L9.00179954,8.09445401 L71.4711401,8.3133615 L71.4824737,10.0801471 C72.8294083,9.30280302 73.9590564,8.78405197 74.8656997,8.51012994 C77.0684822,7.84460837 101.84902,8.0078488 103.455709,8.51866962 C104.143456,8.73732768 105.216338,9.2628608 106.66748,10.112835 L106.66748,8.10913044 L141.495991,8.11186015 L144.224308,16.9627161 L146.269007,8.11214146 L191,8.10097545 L191,85 L157.718181,85 Z" id="Rectangle" stroke="#000000" stroke-width="4" fill="#FFFFFF"></path>
        <g id="Group-2" transform="translate(19.000000, 16.000000)">
            <g id="Group-9" transform="translate(5.726297, 0.000000)">
                <mask id="mask-3" fill="white">
                    <use xlink:href="#path-2"></use>
                </mask>
                <use id="Rectangle" fill="url(#linearGradient-1)" xlink:href="#path-2"></use>
                <path d="M28.1857734,47.3686126 C29.6788963,47.3686126 31.0181554,39.8030446 35.3189839,39.8030446 C37.0333879,39.8030446 34.0705396,43.7043415 35.034388,47.3686126 C35.5809103,49.4463315 38.189011,46.9067751 39.2985378,48.7446449 C41.1410714,51.7967002 41.6011184,58.6843222 41.8344543,58.311021 C42.7302161,56.8779412 43.2949499,54.0177266 43.6393815,50.5331241 C43.7685634,49.2261957 61.0436053,65.9816273 61.1166498,64.5413875 C61.1932461,63.0311126 53.8046023,54.5897646 54.225725,50.5331241 C54.5835875,47.0858642 62.9579642,48.0752154 61.1166498,45.6915179 C60.0388266,44.296208 49.1889162,48.7513294 48.567159,47.3686126 C43.4432242,35.9735673 43.7781682,24.5461587 43.7781682,24.0314136 C43.7781682,21.5736019 41.6887116,11.3830875 37.9733449,11.3830875 C36.398517,11.3830875 38.1071834,16.7044744 36.7699639,19.0012968 C34.9523871,22.1231858 30.3236351,22.6153915 30.3236351,24.0314136 C30.3236351,25.3936962 35.034388,24.1596381 35.034388,27.5704081 C35.034388,30.9811781 26.5297099,47.3686126 28.1857734,47.3686126 Z" id="Oval" fill="url(#linearGradient-4)" opacity="0.613002232" mask="url(#mask-3)"></path>
                <path d="M22.054896,29.7313574 C23.5283027,29.7313574 22.0101997,19.6944777 23.9972848,15.3093375 C24.7915117,13.5566212 28.5324406,18.0516151 29.7448659,17.2765044 C31.040473,16.448215 29.4699059,14.4988721 29.7448659,12.7089267 C29.9814941,11.1685155 32.1471456,9.72345896 32.1470907,9.47643979 C32.1470907,9.3611675 35.5378687,10.894366 36.414273,9.94467453 C37.3302607,8.95208966 35.7827277,7.7335379 36.414273,6.00836327 C36.8587945,4.7940765 43.3247717,7.97868452 44.0467924,6.75975214 C45.0239369,5.11011377 40.2091904,-0.84346944 40.0015637,-1.44910002 C39.4748472,-2.98549045 34.1996793,3.39316245 31.3659349,3.53771452 C28.27999,3.69513159 27.6176548,-2.31100842 27.0364167,-2.44446699 C26.2459472,-2.62596735 27.2381834,6.80628272 26.2928281,6.80628272 C24.1315129,6.80628272 14.106326,-5.42776754 13.0921852,-4.6330594 C12.8470342,-4.44095249 9.20227458,1.63181446 11.0495869,4.96023565 C12.9923081,8.46056116 20.4385656,9.22583567 20.4385656,9.47643979 C20.4385656,10.9511268 18.8216761,29.7313574 22.054896,29.7313574 Z" id="Oval" fill="#CCACA1" opacity="0.703148251" mask="url(#mask-3)"></path>
            </g>
            <path d="M3.46943106,44.4813401 C3.82192571,37.4845975 4.04585385,33.0608942 4.14121549,31.2102302 C4.18002074,30.4571447 4.05956222,29.6091319 3.77983993,28.6661919 L4.46404233,26.7080726 L3.70422343,24.3341256 C4.33752831,23.3041641 4.67106895,22.6282018 4.70484535,22.3062388 C4.78669858,21.5259985 4.8679207,20.8991546 4.94851173,20.4257073 C5.65565886,16.2714363 13.8867702,9.03337774 11.0210575,6.85132631 C8.15534479,4.66927489 2.37822711,7.5047503 1.67107998,11.6590213 C1.19964856,14.4285353 1.79909892,25.3693082 3.46943106,44.4813401 Z" id="Oval-Copy" fill="#ABB5A4" transform="translate(6.570021, 25.288727) rotate(1.000000) translate(-6.570021, -25.288727) "></path>
            <path d="M24.0478864,43.5427502 C22.9831933,34.3488699 22.3317496,28.7305331 22.0935554,26.6877399 C22.0247847,26.0979511 22.3225763,25.4557306 22.9869302,24.7610782 L21.6893132,23.2561268 L22.3107912,21.7866376 C21.7049153,21.2203046 21.386461,20.8191947 21.3554285,20.5833078 C21.121916,18.8083166 20.9362503,17.5267699 20.7984312,16.7386677 C20.068489,12.5645787 13.9986866,12.5625103 16.0874123,8.26966232 C18.1761379,3.97681432 24.9747912,8.93211361 25.7047334,13.1062026 C26.1913615,15.8889286 25.6390792,26.0344445 24.0478864,43.5427502 Z" id="Oval-Copy-2" fill="#9DB28D" transform="translate(20.763973, 25.080132) rotate(1.000000) translate(-20.763973, -25.080132) "></path>
            <path d="M11.0307909,48.6767035 C11.4730018,41.2472527 11.7717468,36.1273268 11.927026,33.3169258 C11.9451841,32.9882814 11.6672203,32.4919546 11.0931344,31.8279453 L12.0647799,30.7858984 L11.0498585,29.3486698 L12.203537,28.1348742 L11.0039782,26.7201905 C11.8801196,26.1213995 12.3247283,25.6829542 12.3378045,25.4048544 C12.4763772,22.4577258 12.5454899,20.4648416 12.5451428,19.4262019 C12.5437377,15.2223796 15.7818741,8.77125247 12.541037,7.14229464 C9.30019995,5.51333681 5.97116257,10.5479268 5.97256721,14.7517491 C5.97350422,17.5542973 7.65957879,28.8626154 11.0307909,48.6767035 Z" id="Oval" fill="#8E9986" transform="translate(9.977364, 27.752506) rotate(1.000000) translate(-9.977364, -27.752506) "></path>
            <path d="M18.0111019,17.4035783 C19.7978814,17.4035783 23.2580746,13.7416731 23.2580746,12.2091552 C23.2580746,10.6766374 19.4009202,8.62515711 17.6141407,8.62515711 C15.8273613,8.62515711 14.3788904,9.86750833 14.3788904,11.4000262 C14.3788904,12.9325441 16.2243225,17.4035783 18.0111019,17.4035783 Z" id="Oval" fill="url(#linearGradient-5)"></path>
            <path d="M3.63221154,15.3093375 C5.41899097,15.3093375 8.87918417,11.6474323 8.87918417,10.1149144 C8.87918417,8.58239651 5.02202976,6.53091627 3.23525034,6.53091627 C1.44847091,6.53091627 -2.11634048e-14,7.77326749 -2.11634048e-14,9.30578538 C-2.11634048e-14,10.8383033 1.84543212,15.3093375 3.63221154,15.3093375 Z" id="Oval-Copy-3" fill="url(#linearGradient-6)" transform="translate(4.439592, 10.920127) scale(-1, 1) translate(-4.439592, -10.920127) "></path>
            <path d="M21.0550494,15.1262388 C22.2880768,13.929646 22.7108755,13.0166921 22.7108755,12.3227217 C22.7108755,11.6287514 20.7898864,12.8367423 19.9075981,13.5307126 C19.0253097,14.224683 17.896865,16.0074852 17.896865,16.7014556 C17.896865,17.395426 19.822022,16.3228316 21.0550494,15.1262388 Z" id="Oval" fill="#6A6963"></path>
            <path d="M3.62624748,13.0143677 C4.85927487,11.8177749 5.23582227,10.8896427 5.23582227,10.1956724 C5.23582227,9.501702 2.98881896,10.3942459 2.10653063,11.0882162 C1.2242423,11.7821866 0.495636638,14.0301791 0.495636638,14.7241495 C0.495636638,15.4181198 2.3932201,14.2109605 3.62624748,13.0143677 Z" id="Oval-Copy-4" fill="#6A6963" transform="translate(2.865729, 12.436207) scale(-1, 1) translate(-2.865729, -12.436207) "></path>
        </g>
        <g id="Group-3" transform="translate(68.000000, 17.000000)">
            <polygon id="Rectangle" fill="url(#linearGradient-7)" points="8.36705558 0.408551069 14.8142494 0.408551069 14.8142494 41.7743468 7.14469398 41.7743468 1.5648855 37.2629087 1.5648855 6.20931131"></polygon>
            <g id="Group-7" transform="translate(0.278003, -0.000000)">
                <mask id="mask-10" fill="white">
                    <use xlink:href="#path-9"></use>
                </mask>
                <use id="Rectangle" fill="url(#linearGradient-8)" xlink:href="#path-9"></use>
                <ellipse id="Oval" fill="#000000" opacity="0.5" filter="url(#filter-11)" mask="url(#mask-10)" cx="20.2793033" cy="10.8877731" rx="15.0229008" ry="10.2648456"></ellipse>
            </g>
            <g id="Group-8" transform="translate(8.664176, 0.622928)">
                <mask id="mask-13" fill="white">
                    <use xlink:href="#path-12"></use>
                </mask>
                <use id="Oval" fill="#D8D8D8" xlink:href="#path-12"></use>
                <path d="M22.5692522,15.3552749 C23.0770747,15.3552749 22.7987406,18.2279525 23.2764962,18.2826603 C23.7311915,18.3347276 25.0912479,18.1881387 25.8185501,17.4010563 C26.3146758,16.8641519 26.0618258,15.7183612 26.8117048,15.3552749 C27.0205374,15.2541596 26.648151,17.022397 26.8117048,16.936105 C28.0963904,16.2582972 29.5756894,15.6250556 29.5756894,7.71140143 C29.5756894,2.43563197 25.376334,-0.20292702 16.977623,-0.204275534 C18.8750769,3.24071985 19.8238038,6.45805951 19.8238038,9.44774347 C19.8238038,13.3685678 18.5533073,16.6404582 20.563565,17.4010563 C20.8525821,17.5104084 22.1310824,15.3554306 22.5692522,15.3552749 Z" id="Oval" fill="#000000" opacity="0.5" filter="url(#filter-14)" mask="url(#mask-13)"></path>
            </g>
            <path d="M20.1262484,17.6180918 C21.8547732,17.6180918 23.8957283,14.5983003 23.8957283,13.0752537 C23.8957283,11.5522072 20.4079681,7.46615794 18.6794433,7.46615794 C16.9509185,7.46615794 15.8626494,13.3830301 15.8626494,14.9060766 C15.8626494,16.4291232 18.3977236,17.6180918 20.1262484,17.6180918 Z" id="Oval" fill="#FFFFFF"></path>
            <path d="M33.3199423,15.9782024 C33.8277647,15.9782024 33.5494307,18.85088 34.0271863,18.9055879 C34.4818816,18.9576551 35.841938,18.8110662 36.5692402,18.0239839 C37.0653659,17.4870794 36.8125159,16.3412887 37.5623949,15.9782024 C37.7712275,15.8770871 37.3988411,17.6453245 37.5623949,17.5590325 C38.8470805,16.8812247 40.3263795,16.2479832 40.3263795,8.33432896 C40.3263795,3.0585595 36.1270241,0.420000518 27.7283131,0.418652004 C28.5769755,2.09560719 29.1486728,3.33777434 29.4434049,4.14515344 C29.4912653,4.27626052 29.3248616,4.53933772 28.9441939,4.93438503 C29.4837287,5.01431418 29.7698256,5.10759962 29.8024847,5.21424136 C29.8372983,5.32791816 29.6339351,5.53981264 29.1923949,5.84992479 C29.7457807,5.94087032 30.0335541,6.02989529 30.055715,6.1169997 C30.0949273,6.27112479 29.8908239,6.54551861 29.4434049,6.94018115 C29.9963404,7.03034569 30.2812184,7.11996506 30.2980389,7.20903926 C30.4823422,8.18502914 30.5744938,9.13890639 30.5744938,10.070671 C30.5744938,13.9914954 29.3039974,17.2633857 31.3142551,18.0239839 C31.6032722,18.133336 32.8817725,15.9783582 33.3199423,15.9782024 Z" id="Oval" fill="url(#linearGradient-15)"></path>
            <path d="M15.0280438,25.7218828 C19.7574755,24.7422197 23.7835063,25.0235656 27.1061363,26.5659204 C27.2615059,28.2728728 26.7623515,30.1382905 25.608673,32.1621735 C24.9265277,33.3588519 21.5484331,33.1274159 13.9451826,33.1274159 C9.48460508,33.1274159 3.87560436,34.1393176 1.1938095,35.2433045 L1.9573438,36.1223495 L0.129134751,36.4306003 L1.1938095,37.7544227 L0.00777131877,38.2213375 C0.772845168,39.8560736 3.65831343,41.4283613 8.66417609,42.9382008 L28.3920525,42.9382008 C36.2563215,41.3766939 40.4257612,37.5109829 40.9003715,31.3410677 C41.612287,22.0861948 35.8015985,18.2013101 32.4199474,17.4245902 C31.715132,17.2627036 30.730208,17.2112415 29.5629447,17.2403112 C29.3744582,17.2450053 29.0879609,17.0189805 28.7034528,16.5622367 C28.3023248,17.0604156 28.0009249,17.3170364 27.799253,17.3320991 C27.6163616,17.3457591 27.3380243,17.1530927 26.9642411,16.7540999 C26.5941826,17.2207144 26.3154044,17.4638171 26.1279065,17.4834081 C25.960384,17.5009119 25.692912,17.3330363 25.3254903,16.9797813 C24.9909933,17.4138039 24.7322959,17.6422124 24.549398,17.6650067 C18.2417232,18.4511241 10.8151477,20.035888 10.0003514,20.0556723 C6.70708187,20.1356369 4.49630556,20.3316363 3.36802249,20.6436707 L4.75172413,21.8693071 C3.66127857,22.1269439 3.12686792,22.2822103 3.14849216,22.3351061 C3.18468895,22.4236484 3.7893063,22.8313917 4.9623442,23.5583361 C3.85550624,23.9477204 3.32406567,24.1689136 3.36802249,24.2219154 C5.17747606,26.4037032 7.49905226,27.2814518 15.0280438,25.7218828 Z" id="Oval" fill="url(#linearGradient-16)"></path>
        </g>
        <g id="Group-6" transform="translate(113.000000, 16.000000)">
            <mask id="mask-19" fill="white">
                <use xlink:href="#path-18"></use>
            </mask>
            <use id="Rectangle" fill="url(#linearGradient-17)" xlink:href="#path-18"></use>
            <rect id="Rectangle" fill="#C2A094" opacity="0.825218564" mask="url(#mask-19)" x="37.9345794" y="-0.621052632" width="13.2616822" height="8.28070175"></rect>
            <path d="M51.4018692,-0.631289152 L64.6635514,-0.631289152 L64.6635514,7.6494126 L58.8875363,7.6494126 C58.3387789,7.34571063 57.9325532,7.19385965 57.6688592,7.19385965 C57.4051652,7.19385965 57.0570163,7.34571063 56.6244125,7.6494126 C56.1848823,7.34571063 55.807453,7.19385965 55.4921247,7.19385965 C55.1767964,7.19385965 54.7342515,7.34571063 54.1644901,7.6494126 L51.4018692,7.6494126 L51.4018692,-0.631289152 Z" id="Rectangle-Copy-4" fill="#D0BAB2" opacity="0.776227679" mask="url(#mask-19)"></path>
            <rect id="Rectangle-Copy-6" fill="#D1B8AF" opacity="0.859072731" mask="url(#mask-19)" x="44.8224299" y="7.85643015" width="13.2616822" height="8.28070175"></rect>
            <rect id="Rectangle-Copy-7" fill="#BAA198" opacity="0.776227679" mask="url(#mask-19)" x="58.2897196" y="7.85643015" width="13.2616822" height="8.28070175"></rect>
            <path d="M31.3551402,7.85643015 L44.6168224,7.85643015 L44.6168224,10.3857941 C44.3349587,10.7448169 44.1940268,11.0432673 44.1940268,11.2811452 C44.1940268,11.5190232 44.3349587,11.8563665 44.6168224,12.2931752 L44.6168224,16.1371319 L31.3551402,16.1371319 L31.3551402,7.85643015 Z" id="Rectangle-Copy-8" fill="#C8B1A8" opacity="0.658993676" mask="url(#mask-19)"></path>
            <path d="M38.0373832,16.3441494 L39.9426845,16.3441494 C40.3256762,16.5947393 40.6408802,16.7200342 40.8882966,16.7200342 C41.135713,16.7200342 41.4612167,16.5947393 41.8648078,16.3441494 L51.2990654,16.3441494 L51.2990654,24.6248512 L38.0373832,24.6248512 L38.0373832,16.3441494 Z" id="Rectangle-Copy-9" fill="#A68B81" opacity="0.776227679" mask="url(#mask-19)"></path>
            <path d="M51.5046729,16.3441494 L53.7304307,16.3441494 C54.0199087,16.5443596 54.2690593,16.6444647 54.4778826,16.6444647 C54.6867058,16.6444647 54.9592358,16.5443596 55.2954726,16.3441494 L64.7663551,16.3441494 L64.7663551,19.2471236 C64.4212022,19.8207352 64.2486257,20.2660819 64.2486257,20.5831637 C64.2486257,20.9002455 64.4212022,21.1984931 64.7663551,21.4779066 C64.5084701,21.8025858 64.3795276,22.0443412 64.3795276,22.2031726 C64.3795276,22.3620041 64.5084701,22.570886 64.7663551,22.8298182 L64.7663551,24.6248512 L51.5046729,24.6248512 L51.5046729,16.3441494 Z" id="Rectangle-Copy-11" fill="#C8B1A8" opacity="0.852422805" mask="url(#mask-19)"></path>
            <rect id="Rectangle-Copy-13" fill="#C8B1A8" opacity="0.776227679" mask="url(#mask-19)" x="44.7196262" y="24.8318687" width="13.2616822" height="8.28070175"></rect>
            <path d="M58.1869159,24.8318687 L71.4485981,24.8318687 L71.4485981,33.1125705 L58.1869159,33.1125705 L58.1869159,30.2383846 C58.4146106,29.816023 58.5284579,29.485853 58.5284579,29.2478746 C58.5284579,29.0098963 58.4146106,28.7748632 58.1869159,28.5427754 L58.1869159,24.8318687 Z" id="Rectangle-Copy-14" fill="#C29B8D" opacity="0.692220052" mask="url(#mask-19)"></path>
            <path d="M31.2523364,24.8318687 L44.5140187,24.8318687 L44.5140187,26.4374847 C44.1425029,26.6700919 43.956745,26.8603465 43.956745,27.0082485 C43.956745,27.1561505 44.1425029,27.3815006 44.5140187,27.6842987 L44.5140187,33.1125705 L31.2523364,33.1125705 L31.2523364,24.8318687 Z" id="Rectangle-Copy-15" fill="#C8B1A8" opacity="0.841262091" mask="url(#mask-19)"></path>
            <path d="M37.9345794,33.319588 L51.1962617,33.319588 L51.1962617,41.6002898 L42.5897934,41.6002898 C42.1234646,41.2614481 41.773718,41.0920272 41.5405536,41.0920272 C41.3073892,41.0920272 40.9774811,41.2614481 40.5508294,41.6002898 L37.9345794,41.6002898 L37.9345794,37.912217 C38.2147581,37.5408215 38.3548474,37.2272632 38.3548474,36.9715421 C38.3548474,36.7158211 38.2147581,36.3810308 37.9345794,35.9671714 L37.9345794,33.319588 Z" id="Rectangle-Copy-16" fill="#C8B1A8" opacity="0.846051897" mask="url(#mask-19)"></path>
            <rect id="Rectangle-Copy-18" fill="#B58C7E" opacity="0.797828311" mask="url(#mask-19)" x="51.4018692" y="33.319588" width="13.2616822" height="8.28070175"></rect>
            <rect id="Rectangle-Copy-20" fill="#D8C0B8" opacity="0.776227679" mask="url(#mask-19)" x="58.1869159" y="41.8073073" width="13.2616822" height="8.28070175"></rect>
            <rect id="Rectangle-Copy-21" fill="#C8B1A8" opacity="0.776227679" mask="url(#mask-19)" x="44.7196262" y="41.8073073" width="13.2616822" height="8.28070175"></rect>
            <rect id="Rectangle-Copy-22" fill="#BE9688" opacity="0.832519531" mask="url(#mask-19)" x="31.1495327" y="41.8073073" width="13.2616822" height="8.28070175"></rect>
            <polygon id="Rectangle-Copy-23" fill="#C8B1A8" opacity="0.663225446" mask="url(#mask-19)" points="51.4018692 50.2950266 52.9607576 50.2950266 54.4259022 50.7623134 55.8443912 50.2950266 64.6635514 50.2950266 64.6635514 58.5757284 51.4018692 58.5757284"></polygon>
            <rect id="Rectangle-Copy-24" fill="#C8B1A8" opacity="0.776227679" mask="url(#mask-19)" x="64.8691589" y="50.2950266" width="13.2616822" height="8.28070175"></rect>
            <rect id="Rectangle-Copy-25" fill="#DACDC8" opacity="0.776227679" mask="url(#mask-19)" x="37.9345794" y="50.2950266" width="13.2616822" height="8.28070175"></rect>
            <rect id="Rectangle-Copy-26" fill="#C8B1A8" opacity="0.776227679" mask="url(#mask-19)" x="24.4672897" y="50.2950266" width="13.2616822" height="8.28070175"></rect>
            <rect id="Rectangle-Copy-19" fill="#C8B1A8" opacity="0.776227679" mask="url(#mask-19)" x="64.8691589" y="33.319588" width="13.2616822" height="8.28070175"></rect>
            <rect id="Rectangle-Copy-17" fill="#D8C1B9" opacity="0.776227679" mask="url(#mask-19)" x="24.4672897" y="33.319588" width="13.2616822" height="8.28070175"></rect>
            <rect id="Rectangle-Copy-12" fill="#C8B1A8" opacity="0.776227679" mask="url(#mask-19)" x="64.9719626" y="16.3441494" width="13.2616822" height="8.28070175"></rect>
            <rect id="Rectangle-Copy-10" fill="#C8B1A8" opacity="0.776227679" mask="url(#mask-19)" x="24.5700935" y="16.3441494" width="13.2616822" height="8.28070175"></rect>
            <rect id="Rectangle-Copy-5" fill="#C8B1A8" opacity="0.776227679" mask="url(#mask-19)" x="64.8691589" y="-0.631289152" width="13.2616822" height="8.28070175"></rect>
            <polygon id="Rectangle-Copy-26" fill="#5C5C5C" mask="url(#mask-19)" points="24.2616822 52.5722196 35.8473457 50.2950266 39.0765651 58.9616758 26.0439498 58.9616758"></polygon>
            <g id="Group-5" mask="url(#mask-19)">
                <g transform="translate(-3.906542, 51.236842)">
                    <ellipse id="Oval-Copy-6" stroke="none" fill="#C9A3A3" cx="3.90654206" cy="6.15877193" rx="3.90654206" ry="6.15877193"></ellipse>
                    <ellipse id="Oval-Copy-7" stroke="none" fill="#C9A3A3" cx="11.7196262" cy="6.15877193" rx="3.90654206" ry="6.15877193"></ellipse>
                    <ellipse id="Oval-Copy-8" stroke="#979797" stroke-width="1" fill="#D8D8D8" cx="19.5327103" cy="6.15877193" rx="3.40654206" ry="5.65877193"></ellipse>
                </g>
            </g>
            <g id="Group-4" mask="url(#mask-19)">
                <g transform="translate(0.000000, 46.578947)">
                    <g id="shadow" stroke-width="1" fill="none" transform="translate(0.000000, 2.070175)" opacity="0.5">
                        <ellipse id="Oval" fill="#000000" filter="url(#filter-20)" cx="3.90654206" cy="6.15877193" rx="3.90654206" ry="6.15877193"></ellipse>
                        <ellipse id="Oval-Copy-5" fill="#000000" filter="url(#filter-21)" cx="11.7196262" cy="6.15877193" rx="3.90654206" ry="6.15877193"></ellipse>
                    </g>
                    <ellipse id="Oval" fill="#A28787" cx="3.90654206" cy="6.15877193" rx="3.90654206" ry="6.15877193"></ellipse>
                    <ellipse id="Oval-Copy-5" fill="#A06A6A" cx="11.7196262" cy="6.15877193" rx="3.90654206" ry="6.15877193"></ellipse>
                </g>
            </g>
            <g id="Group-5" mask="url(#mask-19)">
                <g transform="translate(-3.906542, 40.368421)">
                    <g id="shadow" stroke-width="1" fill="none" transform="translate(0.000000, 2.070175)" opacity="0.5">
                        <path d="M3.90654206,0 C6.06406566,0 7.81308411,2.75737612 7.81308411,6.15877193 C7.81308411,9.56016774 6.06406566,12.3175439 3.90654206,12.3175439 C1.74901845,12.3175439 0,9.56016774 0,6.15877193 C0,2.75737612 1.74901845,0 3.90654206,0 Z M11.7196262,0 C13.8771498,0 15.6261682,2.75737612 15.6261682,6.15877193 C15.6261682,9.56016774 13.8771498,12.3175439 11.7196262,12.3175439 C9.56210257,12.3175439 7.81308411,9.56016774 7.81308411,6.15877193 C7.81308411,2.75737612 9.56210257,0 11.7196262,0 Z M19.5327103,0 C21.6902339,0 23.4392523,2.75737612 23.4392523,6.15877193 C23.4392523,9.56016774 21.6902339,12.3175439 19.5327103,12.3175439 C17.3751867,12.3175439 15.6261682,9.56016774 15.6261682,6.15877193 C15.6261682,2.75737612 17.3751867,0 19.5327103,0 Z" id="Combined-Shape" fill="#000000" filter="url(#filter-22)"></path>
                    </g>
                    <ellipse id="Oval-Copy-6" fill="#C8A2A2" cx="3.90654206" cy="6.15877193" rx="3.90654206" ry="6.15877193"></ellipse>
                    <ellipse id="Oval-Copy-7" fill="#C8A2A2" cx="11.7196262" cy="6.15877193" rx="3.90654206" ry="6.15877193"></ellipse>
                    <ellipse id="Oval-Copy-8" fill="#C8A2A2" cx="19.5327103" cy="6.15877193" rx="3.90654206" ry="6.15877193"></ellipse>
                </g>
            </g>
            <g id="Group-4" mask="url(#mask-19)">
                <g transform="translate(0.000000, 34.054386)">
                    <g id="shadow" stroke-width="1" fill="none" transform="translate(0.000000, 2.070175)" opacity="0.5">
                        <ellipse id="Oval" fill="#000000" filter="url(#filter-23)" cx="3.90654206" cy="6.15877193" rx="3.90654206" ry="6.15877193"></ellipse>
                        <ellipse id="Oval-Copy-5" fill="#000000" filter="url(#filter-24)" cx="11.7196262" cy="6.15877193" rx="3.90654206" ry="6.15877193"></ellipse>
                    </g>
                    <ellipse id="Oval" fill="#AF7C7C" cx="3.90654206" cy="6.15877193" rx="3.90654206" ry="6.15877193"></ellipse>
                    <ellipse id="Oval-Copy-5" fill="#8A7575" cx="11.7196262" cy="6.15877193" rx="3.90654206" ry="6.15877193"></ellipse>
                </g>
            </g>
            <g id="Group-5" mask="url(#mask-19)">
                <g transform="translate(-3.906542, 27.843860)">
                    <g id="shadow" stroke-width="1" fill="none" transform="translate(0.000000, 2.070175)" opacity="0.5">
                        <ellipse id="Oval-Copy-6" fill="#000000" filter="url(#filter-25)" cx="3.90654206" cy="6.15877193" rx="3.90654206" ry="6.15877193"></ellipse>
                        <ellipse id="Oval-Copy-7" fill="#000000" filter="url(#filter-26)" cx="11.7196262" cy="6.15877193" rx="3.90654206" ry="6.15877193"></ellipse>
                        <ellipse id="Oval-Copy-8" fill="#000000" filter="url(#filter-27)" cx="19.5327103" cy="6.15877193" rx="3.90654206" ry="6.15877193"></ellipse>
                    </g>
                    <ellipse id="Oval-Copy-6" fill="#C59D9D" cx="3.90654206" cy="6.15877193" rx="3.90654206" ry="6.15877193"></ellipse>
                    <ellipse id="Oval-Copy-7" fill="#C59D9D" cx="11.7196262" cy="6.15877193" rx="3.90654206" ry="6.15877193"></ellipse>
                    <ellipse id="Oval-Copy-8" fill="#C59D9D" cx="19.5327103" cy="6.15877193" rx="3.90654206" ry="6.15877193"></ellipse>
                </g>
            </g>
            <g id="Group-4" mask="url(#mask-19)">
                <g transform="translate(0.000000, 23.185965)">
                    <g id="shadow" opacity="0.5" stroke-width="1" fill="none" transform="translate(0.000000, 2.070175)">
                        <ellipse id="Oval" fill="#000000" filter="url(#filter-28)" cx="3.90654206" cy="6.15877193" rx="3.90654206" ry="6.15877193"></ellipse>
                        <ellipse id="Oval-Copy-5" fill="#000000" filter="url(#filter-29)" cx="11.7196262" cy="6.15877193" rx="3.90654206" ry="6.15877193"></ellipse>
                    </g>
                    <ellipse id="Oval" fill="#A28787" cx="3.90654206" cy="6.15877193" rx="3.90654206" ry="6.15877193"></ellipse>
                    <ellipse id="Oval-Copy-5" fill="#A06A6A" cx="11.7196262" cy="6.15877193" rx="3.90654206" ry="6.15877193"></ellipse>
                </g>
            </g>
            <g id="Group-5" mask="url(#mask-19)">
                <g transform="translate(-3.906542, 16.975439)">
                    <g id="shadow" stroke-width="1" fill="none" transform="translate(0.000000, 2.070175)" opacity="0.5">
                        <ellipse id="Oval-Copy-6" fill="#000000" filter="url(#filter-30)" cx="3.90654206" cy="6.15877193" rx="3.90654206" ry="6.15877193"></ellipse>
                        <ellipse id="Oval-Copy-7" fill="#000000" filter="url(#filter-31)" cx="11.7196262" cy="6.15877193" rx="3.90654206" ry="6.15877193"></ellipse>
                        <path d="M19.5327103,12.3175439 C21.6902339,12.3175439 23.4392523,9.56016774 23.4392523,6.15877193 C23.4392523,2.75737612 15.6261682,2.75737612 15.6261682,6.15877193 C15.6261682,9.56016774 17.3751867,12.3175439 19.5327103,12.3175439 Z" id="Oval-Copy-8" fill="#000000" filter="url(#filter-32)"></path>
                    </g>
                    <ellipse id="Oval-Copy-6" fill="#C8A2A2" cx="3.90654206" cy="6.15877193" rx="3.90654206" ry="6.15877193"></ellipse>
                    <ellipse id="Oval-Copy-7" fill="#C38F8F" cx="11.7196262" cy="6.15877193" rx="3.90654206" ry="6.15877193"></ellipse>
                    <path d="M19.5327103,12.3175439 C21.6902339,12.3175439 23.4392523,9.56016774 23.4392523,6.15877193 C23.4392523,2.75737612 15.6261682,2.75737612 15.6261682,6.15877193 C15.6261682,9.56016774 17.3751867,12.3175439 19.5327103,12.3175439 Z" id="Oval-Copy-8" fill="#C8A2A2"></path>
                </g>
            </g>
            <g id="Group-4" mask="url(#mask-19)">
                <g transform="translate(0.000000, 10.868421)">
                    <g id="shadow" opacity="0.5" stroke-width="1" fill="none" transform="translate(0.000000, 2.070175)">
                        <ellipse id="Oval" fill="#000000" filter="url(#filter-33)" cx="3.90654206" cy="6.15877193" rx="3.90654206" ry="6.15877193"></ellipse>
                        <ellipse id="Oval-Copy-5" fill="#000000" filter="url(#filter-34)" cx="11.7196262" cy="6.15877193" rx="3.90654206" ry="6.15877193"></ellipse>
                    </g>
                    <ellipse id="Oval" fill="#A27A7A" cx="3.90654206" cy="6.15877193" rx="3.90654206" ry="6.15877193"></ellipse>
                    <ellipse id="Oval-Copy-5" fill="#A58D8D" cx="11.7196262" cy="6.15877193" rx="3.90654206" ry="6.15877193"></ellipse>
                </g>
            </g>
            <g id="Group-5" mask="url(#mask-19)">
                <g transform="translate(-3.906542, 4.657895)">
                    <g id="shadow" opacity="0.6" stroke-width="1" fill="none" transform="translate(0.000000, 2.070175)">
                        <ellipse id="Oval-Copy-6" fill="#000000" filter="url(#filter-35)" cx="3.90654206" cy="6.15877193" rx="3.90654206" ry="6.15877193"></ellipse>
                        <ellipse id="Oval-Copy-7" fill="#000000" filter="url(#filter-36)" cx="11.7196262" cy="6.15877193" rx="3.90654206" ry="6.15877193"></ellipse>
                        <ellipse id="Oval-Copy-8" fill="#000000" filter="url(#filter-37)" cx="19.5327103" cy="6.15877193" rx="3.90654206" ry="6.15877193"></ellipse>
                    </g>
                    <ellipse id="Oval-Copy-6" fill="#C59999" cx="3.90654206" cy="6.15877193" rx="3.90654206" ry="6.15877193"></ellipse>
                    <ellipse id="Oval-Copy-7" fill="#C59999" cx="11.7196262" cy="6.15877193" rx="3.90654206" ry="6.15877193"></ellipse>
                    <path d="M19.5327103,12.3175439 C21.6902339,12.3175439 23.4392523,9.56016774 23.4392523,6.15877193 C23.4392523,2.75737612 15.6261682,2.75737612 15.6261682,6.15877193 C15.6261682,9.56016774 17.3751867,12.3175439 19.5327103,12.3175439 Z" id="Oval-Copy-8" fill="#D0AFAF"></path>
                </g>
            </g>
            <g id="Group-4" mask="url(#mask-19)">
                <g id="shadow" opacity="0.5" transform="translate(0.000000, 2.070175)" fill="#000000">
                    <ellipse id="Oval" filter="url(#filter-38)" cx="3.90654206" cy="6.15877193" rx="3.90654206" ry="6.15877193"></ellipse>
                    <ellipse id="Oval-Copy-5" filter="url(#filter-39)" cx="11.7196262" cy="6.15877193" rx="3.90654206" ry="6.15877193"></ellipse>
                </g>
                <ellipse id="Oval" fill="#A38080" cx="3.90654206" cy="6.15877193" rx="3.90654206" ry="6.15877193"></ellipse>
                <ellipse id="Oval-Copy-5" fill="#A38080" cx="11.7196262" cy="6.15877193" rx="3.90654206" ry="6.15877193"></ellipse>
            </g>
            <g id="Group-5" mask="url(#mask-19)">
                <g transform="translate(-3.906542, -6.210526)">
                    <g id="shadow" opacity="0.5" stroke-width="1" fill="none" transform="translate(0.000000, 2.070175)">
                        <ellipse id="Oval-Copy-6" fill="#000000" filter="url(#filter-40)" cx="3.90654206" cy="6.15877193" rx="3.90654206" ry="6.15877193"></ellipse>
                        <ellipse id="Oval-Copy-7" fill="#000000" filter="url(#filter-41)" cx="11.7196262" cy="6.15877193" rx="3.90654206" ry="6.15877193"></ellipse>
                        <ellipse id="Oval-Copy-8" fill="#000000" filter="url(#filter-42)" cx="19.5327103" cy="6.15877193" rx="3.90654206" ry="6.15877193"></ellipse>
                    </g>
                    <ellipse id="Oval-Copy-6" fill="#A86B6B" cx="3.90654206" cy="6.15877193" rx="3.90654206" ry="6.15877193"></ellipse>
                    <ellipse id="Oval-Copy-7" fill="#9A5E5E" cx="11.7196262" cy="6.15877193" rx="3.90654206" ry="6.15877193"></ellipse>
                    <ellipse id="Oval-Copy-8" fill="#A86B6B" cx="19.5327103" cy="6.15877193" rx="3.90654206" ry="6.15877193"></ellipse>
                </g>
            </g>
        </g>
        <path d="M92,24.9546934 C92.5522847,24.9546934 93,25.147081 93,24.738963 C93,24.330845 92.5522847,24 92,24 C91.4477153,24 91,24.330845 91,24.738963 C91,25.147081 91.4477153,24.9546934 92,24.9546934 Z" id="Oval" fill="#FFFFFF"></path>
        <path d="M84,24.9997516 C84.5522847,24.9997516 85,25.0214973 85,24.6580605 C85,24.2946237 84.5522847,24 84,24 C83.4477153,24 83,24.2946237 83,24.6580605 C83,25.0214973 83.4477153,24.9997516 84,24.9997516 Z" id="Oval-Copy-9" fill="#FFFFFF"></path>
        <path d="M151.433503,75.0486511 C151.193041,74.9509764 150.932196,74.8966036 150.650668,74.8862682 C150.09058,74.8657062 149.622698,75.0256121 149.240925,75.3495127 L133.036962,15.7338282 C133.411707,15.5417916 133.904711,15.4709329 134.504091,15.4929374 C135.147137,15.5165449 135.63232,15.6335288 135.893786,15.9363157 L151.433503,75.0486511 Z" id="Rectangle" stroke="#B0B0B0" fill="url(#linearGradient-43)"></path>
        <path d="M149.384694,75.0726196 C149.10914,74.9580366 148.80765,74.8940041 148.479636,74.8820423 C147.887468,74.8604473 147.393507,75.0155244 146.990938,75.3279058 L129.049613,15.7376521 C129.467708,15.541503 130.018061,15.4691234 130.690031,15.4936286 C131.417927,15.5201732 131.960621,15.6443529 132.255015,15.9578436 L149.384694,75.0726196 Z" id="Rectangle-Copy" stroke="#B0B0B0" fill="url(#linearGradient-44)"></path>
        <path d="M146.386144,75.0756041 C146.108448,74.9600491 145.804331,74.8956888 145.473176,74.8841242 C144.879797,74.8634022 144.384534,75.0188868 143.980647,75.3314155 L126.049586,15.7409793 C126.470345,15.5433443 127.024176,15.4696871 127.700517,15.4933063 C128.431526,15.5188346 128.976408,15.6420889 129.271749,15.9553364 L146.386144,75.0756041 Z" id="Rectangle-Copy-2" stroke="#B0B0B0" fill="url(#linearGradient-45)"></path>
        <path d="M140.240925,75.3495127 L124.036962,15.7338282 C124.411707,15.5417916 124.904711,15.4709329 125.504091,15.4929374 C126.147137,15.5165449 126.63232,15.6335288 126.893786,15.9363157 L142.433503,75.0486511 C142.193041,74.9509764 141.932196,74.8966036 141.650668,74.8862682 C141.09058,74.8657062 140.622698,75.0256121 140.240925,75.3495127 Z" id="Rectangle-Copy-3" stroke="#B0B0B0" fill="url(#linearGradient-43)"></path>
    </g>
</svg>