<?xml version="1.0" encoding="UTF-8"?>
<svg width="80px" height="80px" viewBox="0 0 80 80" version="1.1" xmlns="http://www.w3.org/2000/svg" xmlns:xlink="http://www.w3.org/1999/xlink">
    <!-- Generator: Sketch 62 (91390) - https://sketch.com -->
    <title>LBM_logo_no_bg</title>
    <desc>Created with Sketch.</desc>
    <defs>
        <linearGradient x1="69.7199597%" y1="73.9311011%" x2="-5.42277735%" y2="5.47243783%" id="linearGradient-1">
            <stop stop-color="#EACD89" offset="0%"></stop>
            <stop stop-color="#6C665D" offset="100%"></stop>
        </linearGradient>
        <linearGradient x1="92.4987349%" y1="95.9100814%" x2="-18.7941521%" y2="-16.0075203%" id="linearGradient-2">
            <stop stop-color="#F3D8AD" offset="0%"></stop>
            <stop stop-color="#7C776E" offset="100%"></stop>
        </linearGradient>
    </defs>
    <g id="LBM_logo_no_bg" stroke="none" stroke-width="1" fill="none" fill-rule="evenodd">
        <g id="Group-2" transform="translate(14.177215, 10.126582)">
            <path d="M4.97302733,60.5625731 C5.78910908,49.9425796 6.30751523,43.2280682 6.52824576,40.4190389 C6.61806702,39.2759684 6.34279365,37.9889827 5.70242563,36.5580816 L7.27351928,33.5853475 L5.53385778,29.9829665 C6.98720694,28.4190394 7.75278637,27.3927213 7.83059606,26.9040121 C8.01915889,25.7196816 8.20610373,24.7681764 8.39143058,24.0494964 C10.0175837,17.743428 28.9000247,6.74901062 22.3312221,3.4400679 C15.7624195,0.131125185 2.51202082,4.44077887 0.885867709,10.7468472 C-0.198234367,14.9508927 1.16415217,31.5561347 4.97302733,60.5625731 Z" id="Oval-Copy" fill="#ABB5A4" transform="translate(12.119687, 31.429452) rotate(1.000000) translate(-12.119687, -31.429452) "></path>
            <path d="M49.318057,59.3380015 C47.0970344,45.3846204 45.738071,36.8577761 45.2411668,33.7574685 C45.0977022,32.8623575 45.7222824,31.8873027 47.1149076,30.832304 L44.397828,28.5493799 L45.7014351,26.3183795 C44.4326488,25.4594015 43.7658709,24.8509138 43.7011012,24.4929164 C43.2137254,21.799073 42.8260769,19.8541303 42.5381557,18.6580883 C41.0132159,12.3233953 28.2962867,12.3262677 32.6769035,5.80853107 C37.0575202,-0.709205584 51.2962864,6.80519467 52.8212262,13.1398877 C53.8378528,17.3630164 52.6701297,32.7623876 49.318057,59.3380015 Z" id="Oval-Copy-2" fill="#9DB28D" transform="translate(42.469796, 31.318198) rotate(1.000000) translate(-42.469796, -31.318198) "></path>
            <path d="M23.2634969,60.5749754 C24.0881154,50.3324319 24.6452982,43.2738988 24.9350453,39.399376 C24.9689279,38.9462948 24.4554139,38.2623113 23.3945033,37.3474255 L25.192126,35.91001 L23.3167971,33.9295647 L25.4511736,32.2552169 L23.2344145,30.3060157 C24.8550286,29.4797521 25.6775549,28.8749221 25.7019933,28.4915255 C25.9609765,24.4285266 26.0906319,21.6810993 26.0909595,20.2492434 C26.0922857,14.4539061 32.08588,5.55758649 26.0948347,3.31480091 C20.1037894,1.07201533 13.9434343,8.01559452 13.9421079,13.8109319 C13.9412239,17.6744901 17.0483536,33.2625046 23.2634969,60.5749754 Z" id="Oval" fill="#8E9986" transform="translate(21.349460, 31.729027) rotate(1.000000) translate(-21.349460, -31.729027) "></path>
            <g id="Group-4" transform="translate(26.209001, 0.000000)">
                <path d="M9.01982187,21.1415392 C13.4567993,21.1415392 22.0492416,12.3280262 22.0492416,8.63954558 C22.0492416,4.95106494 12.4710548,0.0135401044 8.03407742,0.0135401044 C3.5971,0.0135401044 0.000219120557,3.00364446 0.000219120557,6.6921251 C0.000219120557,10.3806057 4.58284445,21.1415392 9.01982187,21.1415392 Z" id="Oval" fill="url(#linearGradient-1)"></path>
                <path d="M16.5043107,15.6999022 C19.5547767,12.8124168 20.6007657,10.6093775 20.6007657,8.93476494 C20.6007657,7.26015242 15.8483069,10.1751424 13.665557,11.849755 C11.482807,13.5243675 8.6910747,17.8264286 8.6910747,19.5010411 C8.6910747,21.1756537 13.4538448,18.5873876 16.5043107,15.6999022 Z" id="Oval" fill="#6A6963"></path>
            </g>
            <g id="Group-3" transform="translate(2.065567, 0.000000)">
                <path d="M9.03839208,21.1415392 C13.4753695,21.1415392 22.0678118,12.3280262 22.0678118,8.63954558 C22.0678118,4.95106494 12.489625,0.0135401044 8.05264762,0.0135401044 C3.6156702,0.0135401044 0.0187893248,3.00364446 0.0187893248,6.6921251 C0.0187893248,10.3806057 4.60141466,21.1415392 9.03839208,21.1415392 Z" id="Oval-Copy-3" fill="url(#linearGradient-2)" transform="translate(11.043301, 10.577540) scale(-1, 1) translate(-11.043301, -10.577540) "></path>
                <path d="M8.90473221,15.6136108 C11.9608424,12.7526107 12.8941309,10.5334881 12.8941309,8.87423583 C12.8941309,7.2149836 7.32483882,9.34901623 5.13805014,11.0082685 C2.95126145,12.6675207 1.14538171,18.0423706 1.14538171,19.7016229 C1.14538171,21.3608751 5.84862203,18.4746109 8.90473221,15.6136108 Z" id="Oval-Copy-4" fill="#6A6963" transform="translate(7.019756, 14.231254) scale(-1, 1) translate(-7.019756, -14.231254) "></path>
            </g>
        </g>
    </g>
</svg>