<?xml version="1.0" encoding="UTF-8"?>
<svg width="750px" height="480px" viewBox="0 0 750 480" version="1.1" xmlns="http://www.w3.org/2000/svg" xmlns:xlink="http://www.w3.org/1999/xlink">
    <!-- Generator: Sketch 62 (91390) - https://sketch.com -->
    <title>Load_Screen</title>
    <desc>Created with Sketch.</desc>
    <g id="Load_Screen" stroke="none" stroke-width="1" fill="none" fill-rule="evenodd">
        <path d="M582.330033,460.303664 C580.865567,461.76813 578.946149,462.500363 577.026732,462.500363 C575.107315,462.500363 573.187897,461.76813 571.723431,460.303664 L501.003801,389.584033 C499.539335,388.119567 498.807101,386.20015 498.807101,384.280732 C498.807101,382.207966 499.661009,380.1352 501.368825,378.635372 L466.782669,344.047031 C442.985807,365.041225 411.894527,377.959018 377.801553,378.511801 L375.515005,378.530342 C337.403214,378.530342 302.899462,363.082468 277.923659,338.106634 C252.947856,313.130801 237.5,278.627008 237.5,240.515171 C237.5,202.403334 252.947856,167.899541 277.923659,142.923707 C302.899462,117.947874 337.403214,102.5 375.515005,102.5 C413.626796,102.5 448.130547,117.947874 473.10635,142.923707 C498.082154,167.899541 513.530009,202.403334 513.530009,240.515171 C513.530009,273.465609 501.983041,303.719135 482.714649,327.449854 L517.634469,362.369575 C519.134788,360.661409 521.207712,359.80729 523.280534,359.807141 C525.200111,359.807003 527.119591,360.539234 528.584096,362.003738 L599.303726,432.723369 C600.768192,434.187835 601.500425,436.107252 601.500425,438.02667 C601.500425,439.946087 600.768192,441.865505 599.303726,443.329971 L582.330033,460.303664 Z" id="Combined-Shape" stroke="#B5B5B5" fill="#FFFFFF"></path>
    </g>
</svg>