<?xml version="1.0" encoding="UTF-8"?>
<svg width="240px" height="320px" viewBox="0 0 240 320" version="1.1" xmlns="http://www.w3.org/2000/svg" xmlns:xlink="http://www.w3.org/1999/xlink">
    <!-- Generator: Sketch 62 (91390) - https://sketch.com -->
    <title>Magpie</title>
    <desc>Created with Sketch.</desc>
    <defs>
        <path d="M53.2995951,49.390496 C54.722209,53.3553153 55.2161361,58.0497821 54.7813765,63.4738966 C55.4852911,66.3736659 55.9792182,69.3385924 56.2631579,72.368676 C56.6890674,76.9138014 57.0040486,83.4871501 56.2631579,88.6757714 C55.5222672,93.8643927 51.3558242,98.2229491 49.5951417,107.206562 C47.8344592,116.190174 49.3739066,116.803064 48.854251,124.254889 C48.3345954,131.706713 46.3331791,132.940957 48.1133603,148.715532 C49.8935416,164.490107 54.0404858,171.693712 57.0040486,176.882333 C58.9797571,180.341414 66.388664,188.494962 79.2307692,201.342976 L82.194332,208.014061 L90.3441296,216.90884 L92.5668016,219.873767 L94.048583,231.733472 L97.0121457,236.922094 L99.2348178,240.628252 L95.5303644,257.676579 C92.5187905,267.999645 90.7900456,273.929498 90.3441296,275.466137 C89.8982136,277.002777 89.4042864,278.732317 88.8623482,280.654759 C86.9726589,283.204759 85.4908776,284.9343 84.417004,285.84338 C83.3431305,286.75246 81.6143856,287.740769 79.2307692,288.808306 L68.8582996,289.549538 C64.4129555,292.02031 62.6842105,293.502773 63.6720648,293.996928 C64.659919,294.491082 66.388664,293.502773 68.8582996,291.032001 C70.103432,293.008619 72.0791405,293.996928 74.7854251,293.996928 C77.4917097,293.996928 80.7022361,293.008619 84.417004,291.032001 L92.5668016,283.619685 L90.3441296,288.808306 C89.0637943,289.686153 88.3229036,290.427385 88.1214575,291.032001 C87.8192883,291.938926 88.8623482,291.479904 88.8623482,293.996928 C88.8623482,296.513951 85.8987854,296.961854 88.1214575,298.444317 C89.5847545,299.420297 92.1403432,296.839414 95.5303644,292.514464 C95.5589129,292.478042 95.5589129,292.72512 95.5303644,293.255696 C95.3321661,290.591342 95.3321661,288.614725 95.5303644,287.325843 C95.7285627,286.036961 96.2224898,284.801575 97.0121457,283.619685 C100.474397,284.607994 103.43796,285.102148 105.902834,285.102148 C108.367708,285.102148 110.096453,284.607994 111.089069,283.619685 C112.464831,282.996168 113.699649,282.502014 114.793522,282.137222 C116.434332,281.590034 119.653249,281.634735 119.979757,280.654759 C120.306266,279.674782 119.856631,278.431064 115.534413,278.431064 C111.212195,278.431064 110.741323,281.58233 106.643725,281.39599 C102.546126,281.20965 100.602613,280.448613 98.4939271,277.689832 C96.3852413,274.931051 97.0121457,269.536284 97.0121457,268.795053 C97.0121457,268.053821 101.632773,249.994212 103.680162,243.593178 C105.045088,239.325822 106.773833,235.372587 108.866397,231.733472 L117.016194,230.251009 C119.167448,229.52729 120.896193,230.762676 122.202429,233.957167 C124.161783,238.748904 123.15658,244.235463 123.684211,246.558104 C124.035964,248.106532 124.776855,249.341918 125.906883,250.264263 L125.906883,260.641505 C125.906883,262.123968 125.412955,266.077204 124.425101,272.501211 C123.437247,278.925218 122.696356,283.866762 122.202429,287.325843 C121.262923,290.026488 118.793287,292.49726 114.793522,294.738159 C110.793757,296.979058 107.089304,297.967367 103.680162,297.703086 C101.935061,296.220622 100.206316,295.479391 98.4939271,295.479391 C96.7815385,295.479391 95.2997571,296.220622 94.048583,297.703086 L100.716599,297.703086 C100.418925,298.415195 99.9249981,298.90935 99.2348178,299.185549 C98.5446375,299.461748 97.8037469,299.461748 97.0121457,299.185549 C95.3366064,298.578369 93.3608979,298.578369 91.0850202,299.185549 C88.8091426,299.792729 87.0803976,300.781038 85.8987854,302.150475 L92.5668016,300.668012 C96.4727222,302.506786 98.9423579,303.495095 99.9757085,303.632939 C101.525734,303.839704 102.597627,303.25656 104.421053,302.891707 C105.63667,302.648472 106.624524,302.401394 107.384615,302.150475 C106.646588,303.644395 106.399624,304.879781 106.643725,305.856633 C107.009876,307.321912 107.491269,307.151627 111.089069,306.597865 C113.487602,306.22869 115.216347,305.487458 116.275304,304.37417 C119.732794,300.420935 122.202429,297.950163 123.684211,296.961854 C125.906883,295.479391 135.731464,296.611123 137.761134,296.220622 C139.790803,295.830122 140.196041,294.525827 140.724696,293.996928 C141.077134,293.644328 141.818024,292.656019 142.947368,291.032001 L145.910931,291.032001 L147.392713,293.255696 C148.670454,293.631602 149.164381,293.384525 148.874494,292.514464 C148.439664,291.209374 148.266534,289.879528 145.910931,288.808306 C144.340529,288.094159 142.611784,288.094159 140.724696,288.808306 C140.419357,290.780432 138.937576,292.015818 136.279352,292.514464 C133.621129,293.013111 131.151493,292.518956 128.870445,291.032001 C127.388664,290.043692 126.894737,288.808306 127.388664,287.325843 C128.129555,285.102148 128.289281,278.242649 129.611336,268.795053 C130.933391,259.347456 131.351379,257.431927 132.574899,251.005494 C133.798418,244.579061 135.538462,241.369483 135.538462,237.663325 C135.538462,235.192553 134.05668,230.498086 131.093117,223.579925 L132.574899,221.35623 C132.527683,221.941222 133.762501,221.694145 136.279352,220.614998 C138.796204,219.535851 141.018876,218.300465 142.947368,216.90884 L145.910931,219.873767 L161.469636,223.579925 L167.396761,223.579925 L193.327935,242.851946 C194.861648,243.857574 196.34343,244.598805 197.773279,245.075641 C199.203129,245.552477 201.425801,246.046632 204.441296,246.558104 L220,252.487957 C210.675298,241.940228 203.760318,233.786681 199.255061,228.027314 C192.497175,219.388265 183.121044,205.457454 179.991903,201.342976 C177.905809,198.599991 175.683137,196.129219 173.323887,193.93066 L156.283401,161.316469 L145.910931,150.939227 C139.489879,140.561984 135.044534,133.8909 132.574899,130.925973 C130.105263,127.961047 123.437247,121.784117 112.57085,112.395183 C107.137652,105.971176 104.174089,101.523786 103.680162,99.053014 C103.186235,96.5822419 101.45749,85.2166906 98.4939271,64.9563599 C98,60.0148158 95.5303644,54.8261945 91.0850202,49.390496 C84.417004,41.2369483 79.8083417,40.0107256 76.2672065,37.5307903 C73.9064496,35.8775001 71.436814,34.8891913 68.8582996,34.5658638 C65.8947368,33.577555 63.6720648,32.8363234 62.1902834,32.342169 C61.3627053,32.0661827 59.0813912,29.9692844 57.0040486,28.6360109 C53.502158,26.3884385 49.5520211,24.364469 46.6315789,22.7061581 C43.5296683,20.944804 40.3191419,19.709418 37,19 C40.2621791,25.5053839 42.9787783,30.6940052 45.1497976,34.5658638 C48.4063264,40.3736518 51.1656744,43.4432672 53.2995951,49.390496 Z" id="path-1"></path>
    </defs>
    <g id="Magpie" stroke="none" stroke-width="1" fill="none" fill-rule="evenodd">
        <mask id="mask-2" fill="white">
            <use xlink:href="#path-1"></use>
        </mask>
        <use id="Path" fill="#000000" xlink:href="#path-1"></use>
        <polygon id="Path-2" fill="#FFFFFF" mask="url(#mask-2)" points="51 25.7407407 48 26.4814815 51.75 32.4074074 53.25 33.8888889 62.25 45 61.5 42.037037 57 35.3703704 63.75 40.5555556 68.25 39.8148148 69.75 38.3333333 66 34.6296296 72 33.8888889 53.25 25"></polygon>
        <polygon id="Path-3" fill="#FFFFFF" mask="url(#mask-2)" points="43 33 47.5 35.9714286 51.25 35.9714286 64 49.3428571 61.75 51.5714286 61 56.7714286 48.25 38.2 54.25 50.0857143 53.5 59"></polygon>
        <polygon id="Path-4" fill="#FFFFFF" mask="url(#mask-2)" points="99.1162791 64 93.9069767 67.7272727 91.6744186 67.7272727 90.9302326 71.4545455 87.9534884 74.4363636 87.2093023 77.4181818 82.744186 80.4 84.9767442 84.1272727 82 86.3636364 82 90.0909091 84.2325581 92.3272727 82.744186 99.0363636 82.744186 107.981818 87.2093023 110.963636 93.9069767 107.981818 96.1395349 110.963636 96.8837209 116.927273 96.8837209 119.909091 99.8604651 120.654545 105.069767 118.418182 113.255814 121.4 114.744186 122.890909 120.697674 123.636364 134.093023 135.563636 136.325581 137.054545 146 146 137.069767 126.618182 108.790698 101.272727"></polygon>
        <polygon id="Path-5" fill="#FFFFFF" mask="url(#mask-2)" points="146.526316 149.813953 145.052632 152.790698 142.842105 152.790698 134.736842 146.093023 131.052632 144.604651 122.947368 140.139535 116.315789 134.930233 108.947368 130.465116 106.736842 128.232558 105.263158 128.232558 104.526316 127.488372 102.315789 127.488372 100.842105 126 98.6315789 126.744186 95.6842105 128.232558 92 133.44186 92 141.627907 99.3684211 153.534884 108.210526 159.488372 111.157895 160.976744 113.368421 162.465116 123.684211 169.162791 125.157895 168.418605 120.736842 161.72093 128.842105 167.674419 132.526316 170.651163 135.473684 175.860465 145.052632 182.55814 151.684211 190 153.157895 189.255814 150.210526 181.813953 145.789474 177.348837 140.631579 173.627907 141.368421 170.651163 143.578947 169.162791 147.263158 169.162791 149.473684 167.674419 152.421053 168.418605 154.631579 166.186047 154.631579 162.465116 162 171.395349 157.578947 152.046512"></polygon>
        <circle id="Oval" stroke="#B25B3A" stroke-width="2" mask="url(#mask-2)" cx="74" cy="52" r="3"></circle>
        <circle id="Oval" fill="#FFFFFF" mask="url(#mask-2)" cx="73.5" cy="51.5" r="1"></circle>
        <polygon id="Path-6" fill="#FFFFFF" mask="url(#mask-2)" points="132 221.333333 140.125 217.607843 141.602273 216.117647 144.556818 210.901961 146.034091 209.411765 144.556818 207.176471 146.034091 206.431373 146.034091 204.196078 147.511364 202.705882 146.034091 198.980392 146.772727 197.490196 163.022727 211.647059 163.761364 210.901961 150.465909 196 177.056818 218.352941 191.829545 227.294118 197 232.509804 195.522727 234 193.306818 232.509804 191.090909 233.254902 188.136364 231.019608 188.136364 229.529412 185.920455 228.039216 185.181818 228.039216 185.181818 228.784314 181.488636 228.784314 177.795455 225.058824 170.409091 225.058824 176.318182 231.764706"></polygon>
        <polygon id="Path-7" fill="#FFFFFF" mask="url(#mask-2)" points="74 197 79.8378378 201.363636 83.4864865 201.363636 88.5945946 203.545455 91.5135135 206.454545 93.7027027 209.363636 95.8918919 212.272727 100.27027 214.454545 101 215.909091 98.0810811 215.909091 97.3513514 216.636364 95.1621622 217.363636 90.0540541 213.727273 90.0540541 216.636364 90.7837838 221 76.1891892 203.545455"></polygon>
        <polygon id="Path-8" fill="#FFFFFF" mask="url(#mask-2)" points="107.5 233 108.25 230.076923 108.25 222.769231 103.75 219.846154 103 214 103.75 214 107.5 217.653846 109 219.846154 114.25 226.423077 115 227.884615 118 230.807692"></polygon>
    </g>
</svg>