<?xml version="1.0" encoding="UTF-8"?>
<svg width="360px" height="60px" viewBox="0 0 360 60" version="1.1" xmlns="http://www.w3.org/2000/svg" xmlns:xlink="http://www.w3.org/1999/xlink">
    <!-- Generator: Sketch 62 (91390) - https://sketch.com -->
    <title>Mob View Selector: Filters</title>
    <desc>Created with Sketch.</desc>
    <g id="Mob-View-Selector:-Filters" stroke="none" stroke-width="1" fill="none" fill-rule="evenodd">
        <path d="M8,49 L8,32 C8,23.163444 15.163444,16 24,16 L160.392414,16 C169.22897,16 176.392414,23.163444 176.392414,32 L176.392414,49 L176.392414,49" id="Line-24" fill="#D6D6D6"></path>
        <path d="M0,49 L15.6075861,49 L15.6075861,32 C15.6075861,23.163444 22.7710301,16 31.6075861,16 L168,16 C176.836556,16 184,23.163444 184,32 L184,49 L184,49 L368,49" id="Line-24-Copy" stroke="#979797" fill="#FFFFFF" stroke-linecap="square" transform="translate(184.000000, 32.500000) scale(-1, 1) translate(-184.000000, -32.500000) "></path>
        <text id="filters" font-family="Helvetica" font-size="16" font-weight="normal" letter-spacing="-0.311999333" fill="#555555">
            <tspan x="252.322717" y="42">filters</tspan>
        </text>
        <text id="listings" font-family="Helvetica" font-size="16" font-weight="normal" letter-spacing="-0.311999333" fill="#555555">
            <tspan x="66.7948723" y="42">listings</tspan>
        </text>
    </g>
</svg>