<?xml version="1.0" encoding="UTF-8"?>
<svg width="40px" height="40px" viewBox="0 0 40 40" version="1.1" xmlns="http://www.w3.org/2000/svg" xmlns:xlink="http://www.w3.org/1999/xlink">
    <!-- Generator: Sketch 62 (91390) - https://sketch.com -->
    <title>Rent</title>
    <desc>Created with Sketch.</desc>
    <g id="Rent" stroke="none" stroke-width="1" fill="none" fill-rule="evenodd">
        <ellipse id="Oval-Copy-5" stroke="#B5B5B5" stroke-width="2" cx="20" cy="23.5" rx="14" ry="1.5"></ellipse>
        <path d="M33.53602,27.5099033 C33.5211338,27.5160103 33.5060576,27.522132 33.4907959,27.5282728 C32.7795033,27.8144748 31.7354843,28.0657665 30.4422027,28.2813134 C27.76981,28.7267122 24.0777886,28.9999404 20.004163,28.999949 C15.61768,28.9816878 12.0189253,28.7028918 9.42084264,28.2581815 C8.1709183,28.0442336 7.16335298,27.7966803 6.47744363,27.5153714 C6.46465038,27.5101245 6.45199327,27.5048935 6.43947542,27.499675 C6.8427075,27.3289552 7.37124377,27.1718064 8.004311,27.0243855 C10.723215,27.5989484 14.8948548,27.9785693 19.6002269,27.9990704 C24.7747862,27.9999345 29.0480435,27.6286452 31.8454896,27.0556333 C32.5397812,27.1919953 33.1074654,27.3425492 33.53602,27.5099033 Z" id="Combined-Shape-Copy" stroke="#B5B5B5" stroke-width="2"></path>
        <path d="M33.53602,31.5099033 C33.5211338,31.5160103 33.5060576,31.522132 33.4907959,31.5282728 C32.7795033,31.8144748 31.7354843,32.0657665 30.4422027,32.2813134 C27.76981,32.7267122 24.0777886,32.9999404 20.004163,32.999949 C15.61768,32.9816878 12.0189253,32.7028918 9.42084264,32.2581815 C8.1709183,32.0442336 7.16335298,31.7966803 6.47744363,31.5153714 C6.46465038,31.5101245 6.45199327,31.5048935 6.43947542,31.499675 C6.8427075,31.3289552 7.37124377,31.1718064 8.004311,31.0243855 C10.723215,31.5989484 14.8948548,31.9785693 19.6002269,31.9990704 C24.7747862,31.9999345 29.0480435,31.6286452 31.8454896,31.0556333 C32.5397812,31.1919953 33.1074654,31.3425492 33.53602,31.5099033 Z" id="Combined-Shape-Copy-3" stroke="#B5B5B5" stroke-width="2"></path>
        <ellipse id="Oval-Copy-4" stroke="#B5B5B5" stroke-width="2" transform="translate(21.000000, 14.500000) rotate(20.000000) translate(-21.000000, -14.500000) " cx="21" cy="14.5" rx="14" ry="1.5"></ellipse>
    </g>
</svg>