<?xml version="1.0" encoding="UTF-8"?>
<svg width="80px" height="80px" viewBox="0 0 80 80" version="1.1" xmlns="http://www.w3.org/2000/svg" xmlns:xlink="http://www.w3.org/1999/xlink">
    <!-- Generator: Sketch 62 (91390) - https://sketch.com -->
    <title>House</title>
    <desc>Created with Sketch.</desc>
    <defs>
        <linearGradient x1="50%" y1="0%" x2="50%" y2="100%" id="linearGradient-1">
            <stop stop-color="#AE9967" offset="0%"></stop>
            <stop stop-color="#D6CDB9" offset="100%"></stop>
        </linearGradient>
        <linearGradient x1="50%" y1="0%" x2="50%" y2="100%" id="linearGradient-2">
            <stop stop-color="#E5B3B3" offset="0%"></stop>
            <stop stop-color="#C67C7C" offset="100%"></stop>
        </linearGradient>
        <linearGradient x1="50%" y1="0%" x2="50%" y2="100%" id="linearGradient-3">
            <stop stop-color="#BF9595" offset="0%"></stop>
            <stop stop-color="#C87E7E" offset="100%"></stop>
        </linearGradient>
        <linearGradient x1="50%" y1="0%" x2="50%" y2="100%" id="linearGradient-4">
            <stop stop-color="#A5A5A5" offset="0%"></stop>
            <stop stop-color="#E1E1E1" offset="100%"></stop>
        </linearGradient>
    </defs>
    <g id="House" stroke="none" stroke-width="1" fill="none" fill-rule="evenodd">
        <polygon id="Rectangle" fill="#546954" points="11.7058824 63 68.2941176 63 77 70 3 70"></polygon>
        <g id="Group" transform="translate(14.000000, 35.000000)">
            <path d="M6,2 L12,2 L12,7 L35,7 L35,32 L6,32 L6,2 Z" id="Rectangle-2" fill="url(#linearGradient-1)"></path>
            <rect id="Rectangle" fill="#AABFC1" x="34" y="18" width="13" height="14"></rect>
            <polygon id="Rectangle" fill="url(#linearGradient-2)" points="26 0 42 11 0 11 16 0"></polygon>
            <polygon id="Rectangle" fill="url(#linearGradient-3)" points="34 11 48 17 48 20 34 19"></polygon>
            <rect id="Rectangle" fill="#F4E076" x="16" y="20" width="10" height="12"></rect>
            <rect id="Rectangle" fill="url(#linearGradient-4)" x="35" y="21" width="11" height="11"></rect>
            <path d="M26,19 C26,16.790861 23.7614237,15 21,15 C18.2385763,15 16,16.790861 16,19 L26,19 Z" id="Oval" fill="#F4E076"></path>
        </g>
    </g>
</svg>